# xmcd
#
# Track frame offsets: 
#        150
#        13201
#        25292
#        35195
#        46726
#        57393
#        68556
#        80113
#        90302
#        100320
#        110789
#        159319
#        197788
#        214331
#
# Disc length: 3278 seconds
#
# Revision: 0
# Processed by: cddbd v1.5.1PL2 Copyright (c) Steve Scherf et al.
# Submitted via: ExactAudioCopy v0.95b4
#
DISCID=c30ccc0e
DTITLE=Junior Wells - An Introduction To Junior Wells
DYEAR=2006
DGENRE=Blues
TTITLE0=I Could Cry
TTITLE1=Two Headed Woman
TTITLE2=Lovey Dovey Lovey One
TTITLE3=Little By Little (I'm Losing You)
TTITLE4=Come On In This House
TTITLE5=Prison Bars All Around Me
TTITLE6=Callin' All Blues (with Earl Hooker)
TTITLE7=Messin' With The Kid
TTITLE8=So Tired
TTITLE9=The Things I'd Do for You
TTITLE10=Help Me (Live)
TTITLE11=Look Over Yonder Wall (Live)
TTITLE12=Messin' With The Kid (Live)
TTITLE13=I Can't Help Myself (Live)
EXTD=
EXTT0=
EXTT1=
EXTT2=
EXTT3=
EXTT4=
EXTT5=
EXTT6=
EXTT7=
EXTT8=
EXTT9=
EXTT10=
EXTT11=
EXTT12=
EXTT13=
PLAYORDER=
